<svg width="42" height="42" viewBox="0 0 42 42" fill="none" xmlns="http://www.w3.org/2000/svg">
<rect y="0.45166" width="41.0968" height="41.0968" rx="8" fill="#FFDD00"/>
<path fill-rule="evenodd" clip-rule="evenodd" d="M25.6524 20.8641C26.0191 19.9575 25.3518 18.9678 24.3738 18.9678V18.9678C23.6121 18.9678 22.9946 18.3503 22.9946 17.5886V16.2581C22.9946 15.5102 23.6083 15.5807 24.3645 15.5807V15.5807C25.1211 15.5807 25.7344 14.9674 25.7344 14.2108V13.8872C25.7344 12.9518 24.9762 12.1936 24.0408 12.1936H22.9946C21.9046 12.1936 20.8593 12.6218 20.0886 13.3841C19.3179 14.1463 18.8849 15.1801 18.8849 16.2581V17.5979C18.8849 18.3545 18.2716 18.9678 17.515 18.9678V18.9678C16.7585 18.9678 16.1451 19.5811 16.1451 20.3377V20.985C16.1451 21.7416 16.7585 22.3549 17.515 22.3549V22.3549C18.2716 22.3549 18.8849 22.9682 18.8849 23.7248V27.7517C18.8849 28.8865 19.8049 29.8065 20.9398 29.8065V29.8065C22.0746 29.8065 22.9946 28.8865 22.9946 27.7517V23.5822C22.9946 22.9044 23.5441 22.3549 24.2219 22.3549V22.3549C24.7221 22.3549 25.1722 22.0514 25.3597 21.5877L25.6524 20.8641Z" fill="#424242"/>
</svg>
