<svg width="42" height="42" viewBox="0 0 42 42" fill="none" xmlns="http://www.w3.org/2000/svg">
<rect x="0.451599" y="0.45166" width="41.0968" height="41.0968" rx="8" fill="#FFDD00"/>
<path d="M24.6694 13.6615H17.3307C15.3041 13.6615 13.6613 15.3043 13.6613 17.3309V24.6696C13.6613 26.6961 15.3041 28.3389 17.3307 28.3389H24.6694C26.6959 28.3389 28.3387 26.6961 28.3387 24.6696V17.3309C28.3387 15.3043 26.6959 13.6615 24.6694 13.6615Z" fill="#424242"/>
<path d="M23.9355 20.5376C24.026 21.1484 23.9217 21.7721 23.6373 22.3202C23.353 22.8683 22.903 23.3127 22.3515 23.5903C21.8 23.8679 21.175 23.9645 20.5654 23.8664C19.9558 23.7683 19.3926 23.4805 18.956 23.0439C18.5194 22.6073 18.2316 22.0442 18.1335 21.4346C18.0354 20.825 18.1321 20.2 18.4097 19.6484C18.6873 19.0969 19.1317 18.647 19.6797 18.3626C20.2278 18.0782 20.8516 17.9739 21.4623 18.0645C22.0853 18.1569 22.6621 18.4472 23.1074 18.8925C23.5528 19.3378 23.8431 19.9146 23.9355 20.5376Z" stroke="white" stroke-linecap="round" stroke-linejoin="round"/>
<path d="M25.0363 16.9639H25.0448" stroke="white" stroke-linecap="round" stroke-linejoin="round"/>
</svg>
