<svg width="42" height="42" viewBox="0 0 42 42" fill="none" xmlns="http://www.w3.org/2000/svg">
<rect x="0.903198" y="0.45166" width="41.0968" height="41.0968" rx="8" fill="#FFDD00"/>
<g clip-path="url(#clip0_63_798)">
<path d="M19.556 23.3345L19.2647 27.4324C19.6815 27.4324 19.862 27.2533 20.0785 27.0383L22.0328 25.1706L26.0823 28.1362C26.825 28.5501 27.3483 28.3321 27.5486 27.4529L30.2067 14.9977L30.2074 14.997C30.443 13.8991 29.8104 13.4698 29.0868 13.7391L13.4627 19.7209C12.3964 20.1348 12.4125 20.7292 13.2814 20.9986L17.2759 22.241L26.5542 16.4353C26.9909 16.1462 27.3879 16.3062 27.0613 16.5953L19.556 23.3345Z" fill="#424242"/>
</g>
<defs>
<clipPath id="clip0_63_798">
<rect width="17.6129" height="17.6129" fill="white" transform="translate(12.6451 12.1936)"/>
</clipPath>
</defs>
</svg>
