<svg width="32" height="32" viewBox="0 0 32 32" fill="none" xmlns="http://www.w3.org/2000/svg">
<path d="M24.2758 5.5172H7.72409V4.41375C7.72409 4.1211 7.84034 3.84043 8.04728 3.6335C8.25422 3.42656 8.53488 3.3103 8.82754 3.3103H23.1724C23.465 3.3103 23.7457 3.42656 23.9526 3.6335C24.1596 3.84043 24.2758 4.1211 24.2758 4.41375V5.5172ZM24.2758 14.3448H7.72409C7.57776 14.3448 7.43743 14.4029 7.33396 14.5064C7.23049 14.6098 7.17236 14.7502 7.17236 14.8965V27.5862C7.17236 27.8788 7.28862 28.1595 7.49556 28.3664C7.70249 28.5734 7.98316 28.6896 8.27581 28.6896H23.7241C24.0167 28.6896 24.2974 28.5734 24.5043 28.3664C24.7113 28.1595 24.8275 27.8788 24.8275 27.5862V14.8965C24.8275 14.7502 24.7694 14.6098 24.6659 14.5064C24.5625 14.4029 24.4221 14.3448 24.2758 14.3448ZM22.6206 26.4827H9.37926V15.4482H22.6206V26.4827Z" fill="#FFDD00"/>
<path d="M28.6897 7.72412H3.31036C3.0177 7.72412 2.73704 7.84038 2.5301 8.04731C2.32316 8.25425 2.20691 8.53492 2.20691 8.82757V20.9655C2.20691 21.2582 2.32316 21.5388 2.5301 21.7458C2.73704 21.9527 3.0177 22.0689 3.31036 22.0689H9.37932V15.4483H22.6207V22.0689H28.6897C28.9823 22.0689 29.263 21.9527 29.4699 21.7458C29.6769 21.5388 29.7931 21.2582 29.7931 20.9655V8.82757C29.7931 8.53492 29.6769 8.25425 29.4699 8.04731C29.263 7.84038 28.9823 7.72412 28.6897 7.72412Z" fill="#FFDD00"/>
</svg>
