<svg width="28" height="18" viewBox="0 0 28 18" fill="none" xmlns="http://www.w3.org/2000/svg">
<path d="M2.6013 5.30432C2.94399 5.49984 3.97701 6.08048 5.7004 7.04598C7.42384 8.01148 8.74411 8.75488 9.66127 9.27624C9.76203 9.3334 9.97611 9.45763 10.3036 9.64911C10.6312 9.84072 10.9033 9.99555 11.1199 10.1137C11.3366 10.2317 11.5986 10.3642 11.9062 10.5108C12.2136 10.6573 12.5034 10.7675 12.7755 10.8404C13.0477 10.914 13.2996 10.9504 13.5314 10.9504H13.5466H13.5618C13.7936 10.9504 14.0456 10.9139 14.3178 10.8404C14.5898 10.7675 14.8799 10.6572 15.187 10.5108C15.4944 10.364 15.7564 10.2317 15.9731 10.1137C16.1898 9.99555 16.4618 9.84071 16.7894 9.64911C17.1169 9.45746 17.3312 9.3334 17.432 9.27624C18.3591 8.75488 20.7176 7.43079 24.507 5.30407C25.2427 4.8887 25.8574 4.38751 26.3511 3.80082C26.8453 3.21438 27.0921 2.59919 27.0921 1.95557C27.0921 1.41772 26.8526 0.95732 26.3738 0.5744C25.8951 0.1914 25.3281 0 24.6732 0H2.41983C1.64384 0 1.04666 0.211815 0.628406 0.635443C0.210201 1.05916 0.00109863 1.58879 0.00109863 2.22427C0.00109863 2.73759 0.278349 3.29384 0.832584 3.89268C1.38677 4.49157 1.97653 4.96216 2.6013 5.30432Z" fill="#FFDD00"/>
<path d="M25.579 6.61112C22.2736 8.4198 19.7637 9.82546 18.0506 10.8278C17.4762 11.1698 17.0101 11.4369 16.6523 11.6282C16.2944 11.8197 15.8184 12.0153 15.2236 12.2148C14.6291 12.4146 14.075 12.5142 13.5609 12.5142H13.5455H13.5303C13.0163 12.5142 12.4619 12.4146 11.8674 12.2148C11.2729 12.0153 10.7966 11.8197 10.4388 11.6282C10.0811 11.4369 9.61494 11.1698 9.04054 10.8278C7.67986 10.0212 5.1754 8.61545 1.52704 6.61112C0.952424 6.30168 0.443462 5.94702 0 5.54785V15.2518C0 15.7899 0.236743 16.2501 0.710493 16.6331C1.18414 17.0161 1.75367 17.2076 2.41889 17.2076H24.6723C25.3373 17.2076 25.9068 17.0161 26.3805 16.6331C26.8544 16.25 27.091 15.79 27.091 15.2518V5.54785C26.6576 5.93876 26.1538 6.29343 25.579 6.61112Z" fill="#FFDD00"/>
</svg>
