<svg width="30" height="30" viewBox="0 0 30 30" fill="none" xmlns="http://www.w3.org/2000/svg">
<g clip-path="url(#clip0_63_754)">
<path fill-rule="evenodd" clip-rule="evenodd" d="M27.5792 26.1305L20.1648 18.7162L21.1128 17.7682C21.6423 17.2386 22.3465 16.9469 23.0955 16.9469C23.8444 16.9469 24.5486 17.2386 25.0781 17.7682L28.5272 21.2172C29.0566 21.7467 29.3484 22.4509 29.3484 23.1998C29.3484 23.949 29.0566 24.653 28.5272 25.1825L27.5792 26.1305Z" fill="#FFDD00"/>
<path fill-rule="evenodd" clip-rule="evenodd" d="M3.2179 1.76928L4.16591 0.821282C4.69544 0.291741 5.39961 0 6.14857 0C6.89753 0 7.60171 0.291741 8.13124 0.821282L11.5805 4.27029C12.6736 5.36337 12.6736 7.14227 11.5805 8.23562L10.6325 9.18361L3.2179 1.76928Z" fill="#FFDD00"/>
<path fill-rule="evenodd" clip-rule="evenodd" d="M26.2737 27.3732C23.772 29.4464 20.5552 29.8989 16.9107 28.673C13.7886 27.6227 10.3348 25.3102 7.18588 22.1613C4.03693 19.0123 1.7242 15.5586 0.674118 12.4362C-0.551752 8.79199 -0.0992444 5.57518 1.97388 3.07349L9.42408 10.5237C7.82316 13.0193 10.1251 15.9735 11.7493 17.5977C13.3737 19.2219 16.3279 21.524 18.8233 19.9229L26.2737 27.3732Z" fill="#FFDD00"/>
</g>
<defs>
<clipPath id="clip0_63_754">
<rect width="29.3475" height="29.3474" fill="white"/>
</clipPath>
</defs>
</svg>
