<svg width="30" height="30" viewBox="0 0 30 30" fill="none" xmlns="http://www.w3.org/2000/svg">
<g clip-path="url(#clip0_104_1853)">
<path fill-rule="evenodd" clip-rule="evenodd" d="M27.5794 26.1305L20.165 18.7162L21.1131 17.7682C21.6426 17.2386 22.3467 16.9469 23.0957 16.9469C23.8447 16.9469 24.5489 17.2386 25.0783 17.7682L28.5274 21.2172C29.0569 21.7467 29.3486 22.4509 29.3486 23.1998C29.3486 23.949 29.0569 24.653 28.5274 25.1825L27.5794 26.1305Z" fill="#424242"/>
<path fill-rule="evenodd" clip-rule="evenodd" d="M3.21777 1.76928L4.16579 0.821282C4.69531 0.291741 5.39949 0 6.14845 0C6.89741 0 7.60158 0.291741 8.13111 0.821282L11.5803 4.27029C12.6734 5.36337 12.6734 7.14227 11.5803 8.23562L10.6323 9.18361L3.21777 1.76928Z" fill="#424242"/>
<path fill-rule="evenodd" clip-rule="evenodd" d="M26.2739 27.3732C23.7722 29.4464 20.5554 29.8989 16.9109 28.673C13.7888 27.6227 10.3351 25.3102 7.18612 22.1613C4.03717 19.0123 1.72444 15.5586 0.674362 12.4362C-0.551508 8.79199 -0.0990003 5.57518 1.97412 3.07349L9.42432 10.5237C7.82341 13.0193 10.1254 15.9735 11.7496 17.5977C13.374 19.2219 16.3282 21.524 18.8236 19.9229L26.2739 27.3732Z" fill="#424242"/>
</g>
<defs>
<clipPath id="clip0_104_1853">
<rect width="29.3475" height="29.3474" fill="white"/>
</clipPath>
</defs>
</svg>
