<svg width="21" height="26" viewBox="0 0 21 26" fill="none" xmlns="http://www.w3.org/2000/svg">
<g clip-path="url(#clip0_104_1824)">
<g clip-path="url(#clip1_104_1824)">
<path fill-rule="evenodd" clip-rule="evenodd" d="M9.96009 0.427504C4.89889 0.60509 0.69427 4.55377 0.208524 9.59408C0.109285 10.6021 0.166744 11.5789 0.344328 12.5138C0.344328 12.5138 0.359991 12.6235 0.412228 12.8324C0.568919 13.5323 0.803961 14.2113 1.09646 14.8485C2.11496 17.2616 4.47059 21.2991 9.75639 25.6917C10.0802 25.9633 10.5555 25.9633 10.8846 25.6917C16.1704 21.3043 18.526 17.2668 19.5497 14.8433C19.8475 14.2061 20.0773 13.5323 20.234 12.8272C20.281 12.6235 20.3019 12.5086 20.3019 12.5086C20.422 11.8818 20.4847 11.2394 20.4847 10.5812C20.4847 4.84626 15.7369 0.223803 9.96009 0.427504ZM10.3208 15.6366C7.59432 15.6366 5.38494 13.4273 5.38494 10.7008C5.38494 7.97432 7.59432 5.76494 10.3208 5.76494C13.0473 5.76494 15.2566 7.97432 15.2566 10.7008C15.2566 13.4273 13.0473 15.6366 10.3208 15.6366Z" fill="#424242"/>
</g>
</g>
<defs>
<clipPath id="clip0_104_1824">
<rect width="20.3245" height="25.4744" fill="white"/>
</clipPath>
<clipPath id="clip1_104_1824">
<rect width="20.3245" height="25.4744" fill="white"/>
</clipPath>
</defs>
</svg>
