<svg width="32" height="32" viewBox="0 0 32 32" fill="none" xmlns="http://www.w3.org/2000/svg">
<path d="M24.2763 5.5172H7.72458V4.41375C7.72458 4.1211 7.84083 3.84043 8.04777 3.6335C8.25471 3.42656 8.53537 3.3103 8.82802 3.3103H23.1729C23.4655 3.3103 23.7462 3.42656 23.9531 3.6335C24.16 3.84043 24.2763 4.1211 24.2763 4.41375V5.5172ZM24.2763 14.3448H7.72458C7.57825 14.3448 7.43792 14.4029 7.33445 14.5064C7.23098 14.6098 7.17285 14.7502 7.17285 14.8965V27.5862C7.17285 27.8788 7.28911 28.1595 7.49604 28.3664C7.70298 28.5734 7.98365 28.6896 8.2763 28.6896H23.7246C24.0172 28.6896 24.2979 28.5734 24.5048 28.3664C24.7118 28.1595 24.828 27.8788 24.828 27.5862V14.8965C24.828 14.7502 24.7699 14.6098 24.6664 14.5064C24.563 14.4029 24.4226 14.3448 24.2763 14.3448ZM22.6211 26.4827H9.37975V15.4482H22.6211V26.4827Z" fill="#424242"/>
<path d="M28.6898 7.72412H3.31048C3.01783 7.72412 2.73716 7.84038 2.53022 8.04731C2.32329 8.25425 2.20703 8.53492 2.20703 8.82757V20.9655C2.20703 21.2582 2.32329 21.5388 2.53022 21.7458C2.73716 21.9527 3.01783 22.0689 3.31048 22.0689H9.37945V15.4483H22.6208V22.0689H28.6898C28.9824 22.0689 29.2631 21.9527 29.47 21.7458C29.677 21.5388 29.7932 21.2582 29.7932 20.9655V8.82757C29.7932 8.53492 29.677 8.25425 29.47 8.04731C29.2631 7.84038 28.9824 7.72412 28.6898 7.72412Z" fill="#424242"/>
</svg>
